<svg xmlns="http://www.w3.org/2000/svg" width="720" height="420" viewBox="0 0 720 420">
<g transform="translate(80 42)"><rect x="4.72" y="110.92" width="184.08" height="20.06" rx="1.18" fill="#FFFFFF"/>
<polygon points="405.92,11.80 428.34,5.90 441.32,34.22 417.72,40.12" fill="#FFFFFF"/>
<rect x="285.56" y="30.68" width="184.08" height="24.78" rx="1.18" fill="#FFFFFF"/>
<rect x="285.56" y="30.68" width="18.88" height="50.74" rx="0.00" fill="#FFFFFF"/>
<rect x="450.76" y="30.68" width="18.88" height="50.74" rx="0.00" fill="#FFFFFF"/>
<polygon points="292.64,84.96 401.20,46.02 438.96,61.36 328.04,101.48" fill="#FFFFFF"/>
<polygon points="337.48,112.10 389.40,84.96 436.60,109.74 381.14,136.88" fill="#FFFFFF"/>
<rect x="315.06" y="107.38" width="21.24" height="122.72" rx="0.00" fill="#FFFFFF"/>
<rect x="442.50" y="107.38" width="21.24" height="122.72" rx="0.00" fill="#FFFFFF"/>
<rect x="315.06" y="208.86" width="148.68" height="21.24" rx="0.00" fill="#FFFFFF"/>
<polygon points="341.02,149.86 388.22,119.18 434.24,142.78 385.86,171.10" fill="#FFFFFF"/>
<polygon points="356.36,187.62 389.40,166.38 417.72,181.72 384.68,202.96" fill="#FFFFFF"/>
<rect x="371.70" y="122.72" width="21.24" height="82.60" rx="0.00" fill="#FFFFFF"/></g>
<text x="360" y="325" text-anchor="middle" fill="#FFFFFF" font-family="Avenir Next, Helvetica Neue, Arial, sans-serif" font-size="31" font-weight="400" letter-spacing="24">YI CHUANG</text>
</svg>